# xmcd
#
# Track frame offsets: 
#        150
#        15764
#        43172
#        60858
#        80304
#        99453
#        111711
#        132399
#        150660
#        169663
#        182224
#        198834
#        230452
#
# Disc length: 3373 seconds
#
# Revision: 1
# Processed by: cddbd v1.5.2PL0 Copyright (c) Steve Scherf et al.
# Submitted via: ExactAudioCopy v0.99pb5
#
DISCID=9e0d2b0d
DTITLE=Reidar Larsen - Kom inn te oss
DYEAR=2009
DGENRE=Blues
TTITLE0=Noahs ark
TTITLE1=Komm inn te oss
TTITLE2=Little venn
TTITLE3=Pyramidesamfunnet
TTITLE4=Vente te i mårå
TTITLE5=Blakke og blåe
TTITLE6=Han far og de
TTITLE7=Mårhunden i meg
TTITLE8=Synske dama
TTITLE9=Eg har ikkje svenskepilk
TTITLE10=Eg, ein syklist
TTITLE11=Ongane
TTITLE12=Mangen bler møje
EXTD=
EXTT0=
EXTT1=
EXTT2=
EXTT3=
EXTT4=
EXTT5=
EXTT6=
EXTT7=
EXTT8=
EXTT9=
EXTT10=
EXTT11=
EXTT12=
PLAYORDER=
